<svg width="1558" height="512" viewBox="0 0 1558 512" fill="none" xmlns="http://www.w3.org/2000/svg">
<g clip-path="url(#clip0_1_9)">
<path d="M280.741 160.996C312.409 189.072 337.932 219.133 354.38 247.492C382.645 197.013 401.457 136.985 401.741 98.7945V98.0383C401.741 41.5086 345.305 19.4828 296.716 19.4828C248.127 19.4828 191.692 41.4141 191.692 97.9438V100.969C218.823 113.069 250.869 134.622 280.741 160.996Z" fill="#F9C230"/>
<path d="M107.843 315.177C127.695 293.151 158.039 269.234 192.354 249.099C228.843 227.641 265.332 212.61 297.378 205.804C258.053 163.359 206.817 126.87 170.612 114.865C170.328 114.77 170.139 114.676 169.95 114.676C116.067 96.9984 77.6875 143.886 62.6571 190.112C47.6266 236.338 51.1242 296.743 104.913 314.231C105.669 314.42 106.614 314.798 107.843 315.177Z" fill="url(#paint0_linear_1_9)"/>
<path d="M531.343 189.261C516.312 143.13 477.933 96.2422 424.145 113.73C423.388 114.014 422.443 114.298 421.214 114.676C418.095 144.17 407.602 181.32 391.72 217.809C374.799 256.662 354.097 290.22 332.26 314.609C388.979 325.859 451.842 325.291 488.331 313.664C488.615 313.57 488.804 313.475 488.993 313.475C542.876 295.892 546.279 235.487 531.343 189.261Z" fill="url(#paint1_linear_1_9)"/>
<path d="M248.789 360.268C239.62 318.958 236.689 279.633 239.998 247.02C187.533 271.314 136.959 308.748 114.271 339.471C114.082 339.66 113.987 339.849 113.798 340.038C80.5234 385.791 113.231 436.744 152.556 465.292C191.881 493.841 250.396 509.155 283.671 463.496C284.144 462.834 284.711 462.078 285.467 461.038C270.72 435.42 257.391 399.12 248.789 360.268Z" fill="url(#paint2_linear_1_9)"/>
<path d="M479.256 337.202C450.235 343.347 411.666 344.859 372.058 340.984C329.897 336.919 291.612 327.56 261.645 314.326C268.452 371.801 288.492 431.355 310.707 462.456C310.896 462.645 310.991 462.834 311.18 463.023C344.455 508.777 402.97 493.462 442.295 464.82C481.62 436.271 514.327 385.319 481.052 339.566C480.58 338.998 480.012 338.242 479.256 337.202Z" fill="url(#paint3_linear_1_9)"/>
</g>
<path d="M650.944 148.416C650.944 138.944 659.136 131.008 668.864 131.008C678.592 131.008 686.528 138.944 686.528 148.416C686.528 158.144 678.592 165.824 668.864 165.824C659.136 165.824 650.944 158.144 650.944 148.416ZM653.76 281.28V221.888C653.76 217.28 652.736 209.856 652.736 205.504C652.736 196.288 659.904 189.12 668.864 189.12C677.824 189.12 684.992 196.288 684.992 205.504C684.992 209.856 683.712 217.28 683.712 221.888V281.28C683.712 285.888 684.992 293.312 684.992 297.664C684.992 306.88 677.824 314.048 668.864 314.048C659.904 314.048 652.736 306.88 652.736 297.664C652.736 293.312 653.76 285.888 653.76 281.28ZM890.326 314.048C881.622 314.048 874.198 306.88 874.198 297.664C874.198 293.312 875.478 285.888 875.478 281.28V236.992C875.478 221.376 867.286 211.136 853.206 211.136C843.99 211.136 835.798 215.744 830.422 224.704C830.934 227.52 831.19 230.336 831.19 233.408V281.28C831.19 285.888 832.47 293.312 832.47 297.664C832.47 306.88 825.302 314.048 816.086 314.048C807.638 314.048 800.214 306.88 800.214 297.664C800.214 293.312 801.494 285.888 801.494 281.28V236.224C801.494 231.36 800.726 227.008 798.934 223.168C795.606 215.744 788.95 211.136 779.734 211.136C770.262 211.136 762.582 216 756.95 224.704V281.28C756.95 285.888 758.23 293.312 758.23 297.664C758.23 306.88 750.806 314.048 742.102 314.048C733.142 314.048 725.974 306.88 725.974 297.664C725.974 293.312 726.998 285.888 726.998 281.28V222.144C726.998 217.536 724.694 209.344 724.694 205.504C724.694 196.288 731.35 189.12 740.31 189.12C748.758 189.12 753.622 194.752 755.158 202.176C762.838 191.936 773.59 185.536 787.67 185.536C804.31 185.536 816.342 193.472 823.766 206.272C832.214 192.96 844.502 185.536 859.862 185.536C885.718 185.536 905.43 204.224 905.43 234.176V281.28C905.43 285.888 906.454 293.312 906.454 297.664C906.454 306.88 899.542 314.048 890.326 314.048ZM1108.83 314.048C1100.12 314.048 1092.7 306.88 1092.7 297.664C1092.7 293.312 1093.98 285.888 1093.98 281.28V236.992C1093.98 221.376 1085.79 211.136 1071.71 211.136C1062.49 211.136 1054.3 215.744 1048.92 224.704C1049.43 227.52 1049.69 230.336 1049.69 233.408V281.28C1049.69 285.888 1050.97 293.312 1050.97 297.664C1050.97 306.88 1043.8 314.048 1034.59 314.048C1026.14 314.048 1018.71 306.88 1018.71 297.664C1018.71 293.312 1019.99 285.888 1019.99 281.28V236.224C1019.99 231.36 1019.23 227.008 1017.43 223.168C1014.11 215.744 1007.45 211.136 998.234 211.136C988.762 211.136 981.082 216 975.45 224.704V281.28C975.45 285.888 976.73 293.312 976.73 297.664C976.73 306.88 969.306 314.048 960.602 314.048C951.642 314.048 944.474 306.88 944.474 297.664C944.474 293.312 945.498 285.888 945.498 281.28V222.144C945.498 217.536 943.194 209.344 943.194 205.504C943.194 196.288 949.85 189.12 958.81 189.12C967.258 189.12 972.122 194.752 973.658 202.176C981.338 191.936 992.09 185.536 1006.17 185.536C1022.81 185.536 1034.84 193.472 1042.27 206.272C1050.71 192.96 1063 185.536 1078.36 185.536C1104.22 185.536 1123.93 204.224 1123.93 234.176V281.28C1123.93 285.888 1124.95 293.312 1124.95 297.664C1124.95 306.88 1118.04 314.048 1108.83 314.048ZM1161.69 148.416C1161.69 138.944 1169.89 131.008 1179.61 131.008C1189.34 131.008 1197.28 138.944 1197.28 148.416C1197.28 158.144 1189.34 165.824 1179.61 165.824C1169.89 165.824 1161.69 158.144 1161.69 148.416ZM1164.51 281.28V221.888C1164.51 217.28 1163.49 209.856 1163.49 205.504C1163.49 196.288 1170.65 189.12 1179.61 189.12C1188.57 189.12 1195.74 196.288 1195.74 205.504C1195.74 209.856 1194.46 217.28 1194.46 221.888V281.28C1194.46 285.888 1195.74 293.312 1195.74 297.664C1195.74 306.88 1188.57 314.048 1179.61 314.048C1170.65 314.048 1163.49 306.88 1163.49 297.664C1163.49 293.312 1164.51 285.888 1164.51 281.28ZM1291.25 316.096C1252.85 316.096 1230.58 287.424 1230.58 250.816C1230.58 214.72 1253.11 185.536 1290.48 185.536C1310.2 185.536 1328.37 194.496 1336.56 207.808C1339.64 212.672 1340.15 215.488 1340.15 217.792C1340.15 225.728 1334 232.384 1325.04 232.384C1319.16 232.384 1313.78 229.056 1311.48 223.168C1307.89 215.232 1300.98 210.624 1290.48 210.624C1270.77 210.624 1259.76 228.288 1259.76 250.56C1259.76 273.088 1271.28 290.496 1291.25 290.496C1302 290.496 1309.68 286.656 1313.27 278.72C1315.83 273.344 1320.69 268.736 1327.35 268.736C1336.56 268.736 1342.2 275.136 1342.2 283.072C1342.2 286.912 1340.66 291.52 1337.33 295.872C1328.88 307.136 1313.01 316.096 1291.25 316.096ZM1467.91 314.048C1458.95 314.048 1451.78 306.88 1451.78 297.664C1451.78 293.312 1452.8 285.888 1452.8 281.28V237.504C1452.8 221.888 1444.1 211.136 1429.25 211.136C1419.01 211.136 1410.31 216 1404.68 223.936V281.28C1404.68 285.888 1405.7 293.312 1405.7 297.664C1405.7 306.88 1398.53 314.048 1389.57 314.048C1380.61 314.048 1373.44 306.88 1373.44 297.664C1373.44 293.312 1374.72 285.888 1374.72 281.28V157.376C1374.72 152.768 1373.44 145.344 1373.44 140.992C1373.44 131.776 1380.87 124.608 1389.57 124.608C1398.53 124.608 1405.7 131.776 1405.7 140.992C1405.7 145.344 1404.68 152.768 1404.68 157.376V199.104C1412.36 190.656 1423.36 185.536 1437.44 185.536C1463.81 185.536 1482.76 205.248 1482.76 233.408V281.28C1482.76 285.888 1484.04 293.312 1484.04 297.664C1484.04 306.88 1476.61 314.048 1467.91 314.048Z" fill="#F9C230"/>
<path d="M644.48 408.768C640.832 408.768 637.856 405.984 637.856 402.336C637.856 398.784 640.832 396 644.48 396C648.032 396 651.008 398.784 651.008 402.336C651.008 405.984 648.032 408.768 644.48 408.768ZM664.716 396.48V350.016C664.716 348.288 664.236 345.504 664.236 343.872C664.236 340.416 667.02 337.728 670.284 337.728C673.644 337.728 676.332 340.416 676.332 343.872C676.332 345.504 675.948 348.288 675.948 350.016V396.48C675.948 398.208 676.332 400.992 676.332 402.624C676.332 406.08 673.644 408.768 670.284 408.768C667.02 408.768 664.236 406.08 664.236 402.624C664.236 400.992 664.716 398.208 664.716 396.48ZM711.59 360.576C725.414 360.576 734.246 371.232 734.246 384.864C734.246 398.304 725.606 409.536 711.782 409.536C698.054 409.536 689.03 398.592 689.03 385.056C689.03 371.616 697.766 360.576 711.59 360.576ZM711.686 400.128C718.886 400.128 723.206 393.696 723.206 385.056C723.206 376.416 718.886 369.888 711.686 369.888C704.39 369.888 700.07 376.32 700.07 384.96C700.07 393.504 704.39 400.128 711.686 400.128ZM767.563 409.536C753.163 409.536 744.811 398.784 744.811 385.056C744.811 371.52 753.259 360.576 767.275 360.576C774.667 360.576 781.483 363.936 784.555 368.928C785.707 370.752 785.899 371.808 785.899 372.672C785.899 375.648 783.595 378.144 780.235 378.144C778.027 378.144 776.011 376.896 775.147 374.688C773.803 371.712 771.211 369.984 767.275 369.984C759.883 369.984 755.755 376.608 755.755 384.96C755.755 393.408 760.075 399.936 767.563 399.936C771.595 399.936 774.475 398.496 775.819 395.52C776.779 393.504 778.603 391.776 781.099 391.776C784.555 391.776 786.667 394.176 786.667 397.152C786.667 398.592 786.091 400.32 784.843 401.952C781.675 406.176 775.723 409.536 767.563 409.536ZM814.225 401.088C817.969 401.088 820.561 399.936 822.385 398.208V386.016C820.561 386.976 817.969 387.744 813.937 388.032C809.233 388.416 806.545 391.104 806.545 394.656C806.545 398.304 809.617 401.088 814.225 401.088ZM832.081 408.768C829.201 408.768 826.417 407.616 824.689 405.216C821.809 407.808 817.489 409.536 812.305 409.536C802.417 409.536 795.409 403.488 795.409 394.944C795.409 386.688 801.457 380.832 813.745 380.064C818.449 379.776 821.041 379.104 822.385 377.952V375.84C822.385 371.616 819.601 368.832 815.281 368.832C811.921 368.832 809.905 370.368 809.233 372.672C808.465 375.072 806.545 376.608 803.953 376.608C800.305 376.608 798.769 373.632 798.769 371.52C798.769 369.504 799.633 368.064 800.977 366.528C803.281 363.552 808.081 360.576 815.185 360.576C826.417 360.576 833.329 366.624 833.329 377.664V397.056C833.329 398.016 833.425 398.304 833.809 398.304C834.097 398.304 834.481 398.112 835.153 398.112C838.033 398.112 839.761 400.32 839.761 402.816C839.761 406.08 836.881 408.768 832.081 408.768ZM849.872 396.48V350.016C849.872 348.288 849.392 345.504 849.392 343.872C849.392 340.416 852.176 337.728 855.44 337.728C858.8 337.728 861.488 340.416 861.488 343.872C861.488 345.504 861.104 348.288 861.104 350.016V396.48C861.104 398.208 861.488 400.992 861.488 402.624C861.488 406.08 858.8 408.768 855.44 408.768C852.176 408.768 849.392 406.08 849.392 402.624C849.392 400.992 849.872 398.208 849.872 396.48Z" fill="#1E83F7"/>
<defs>
<linearGradient id="paint0_linear_1_9" x1="84" y1="200" x2="241" y2="213" gradientUnits="userSpaceOnUse">
<stop stop-color="#1E83F7"/>
<stop offset="1" stop-color="#F9C230"/>
</linearGradient>
<linearGradient id="paint1_linear_1_9" x1="402" y1="270" x2="524" y2="237" gradientUnits="userSpaceOnUse">
<stop stop-color="#F9C230"/>
<stop offset="1" stop-color="#1E83F7"/>
</linearGradient>
<linearGradient id="paint2_linear_1_9" x1="236" y1="314" x2="146" y2="416" gradientUnits="userSpaceOnUse">
<stop stop-color="#F9C230"/>
<stop offset="1" stop-color="#1E83F7"/>
</linearGradient>
<linearGradient id="paint3_linear_1_9" x1="311" y1="348" x2="366" y2="466" gradientUnits="userSpaceOnUse">
<stop stop-color="#F9C230"/>
<stop offset="1" stop-color="#1E83F7"/>
</linearGradient>
<clipPath id="clip0_1_9">
<rect width="484" height="484" fill="white" transform="translate(55 14)"/>
</clipPath>
</defs>
</svg>
