<svg width="512" height="512" viewBox="0 0 512 512" fill="none" xmlns="http://www.w3.org/2000/svg">
<g clip-path="url(#clip0_1_2)">
<path d="M239.741 160.996C271.409 189.072 296.932 219.133 313.38 247.492C341.645 197.013 360.457 136.985 360.741 98.7945V98.0383C360.741 41.5086 304.305 19.4828 255.716 19.4828C207.127 19.4828 150.692 41.4141 150.692 97.9438V100.969C177.823 113.069 209.869 134.622 239.741 160.996Z" fill="#F9C230"/>
<path d="M66.843 315.177C86.6945 293.151 117.039 269.234 151.354 249.099C187.843 227.641 224.332 212.61 256.378 205.804C217.053 163.359 165.817 126.87 129.612 114.865C129.328 114.77 129.139 114.676 128.95 114.676C75.0672 96.9984 36.6875 143.886 21.657 190.112C6.62656 236.338 10.1242 296.743 63.9125 314.231C64.6687 314.42 65.6141 314.798 66.843 315.177Z" fill="url(#paint0_linear_1_2)"/>
<path d="M490.343 189.261C475.312 143.13 436.933 96.2422 383.145 113.73C382.388 114.014 381.443 114.298 380.214 114.676C377.095 144.17 366.602 181.32 350.72 217.809C333.799 256.662 313.097 290.22 291.26 314.609C347.979 325.859 410.842 325.291 447.331 313.664C447.615 313.57 447.804 313.475 447.993 313.475C501.876 295.892 505.279 235.487 490.343 189.261Z" fill="url(#paint1_linear_1_2)"/>
<path d="M207.789 360.268C198.62 318.958 195.689 279.633 198.998 247.02C146.533 271.314 95.9586 308.748 73.2711 339.471C73.082 339.66 72.9875 339.849 72.7984 340.038C39.5234 385.791 72.2313 436.744 111.556 465.292C150.881 493.841 209.396 509.155 242.671 463.496C243.144 462.834 243.711 462.078 244.467 461.038C229.72 435.42 216.391 399.12 207.789 360.268Z" fill="url(#paint2_linear_1_2)"/>
<path d="M438.256 337.202C409.235 343.347 370.666 344.859 331.058 340.984C288.897 336.919 250.612 327.56 220.645 314.326C227.452 371.801 247.492 431.355 269.707 462.456C269.896 462.645 269.991 462.834 270.18 463.023C303.455 508.777 361.97 493.462 401.295 464.82C440.62 436.271 473.327 385.319 440.052 339.566C439.58 338.998 439.012 338.242 438.256 337.202Z" fill="url(#paint3_linear_1_2)"/>
</g>
<defs>
<linearGradient id="paint0_linear_1_2" x1="43" y1="200" x2="200" y2="213" gradientUnits="userSpaceOnUse">
<stop stop-color="#1E83F7"/>
<stop offset="1" stop-color="#F9C230"/>
</linearGradient>
<linearGradient id="paint1_linear_1_2" x1="361" y1="270" x2="483" y2="237" gradientUnits="userSpaceOnUse">
<stop stop-color="#F9C230"/>
<stop offset="1" stop-color="#1E83F7"/>
</linearGradient>
<linearGradient id="paint2_linear_1_2" x1="195" y1="314" x2="105" y2="416" gradientUnits="userSpaceOnUse">
<stop stop-color="#F9C230"/>
<stop offset="1" stop-color="#1E83F7"/>
</linearGradient>
<linearGradient id="paint3_linear_1_2" x1="270" y1="348" x2="325" y2="466" gradientUnits="userSpaceOnUse">
<stop stop-color="#F9C230"/>
<stop offset="1" stop-color="#1E83F7"/>
</linearGradient>
<clipPath id="clip0_1_2">
<rect width="484" height="484" fill="white" transform="translate(14 14)"/>
</clipPath>
</defs>
</svg>
